<?xml version="1.0" encoding="utf-8"?>
<!-- Generator: Adobe Illustrator 18.0.0, SVG Export Plug-In . SVG Version: 6.00 Build 0)  -->
<!DOCTYPE svg PUBLIC "-//W3C//DTD SVG 1.1//EN" "http://www.w3.org/Graphics/SVG/1.1/DTD/svg11.dtd">
<svg version="1.1" id="Layer_1" xmlns="http://www.w3.org/2000/svg" xmlns:xlink="http://www.w3.org/1999/xlink" x="0px" y="0px"
	 viewBox="109.3 319.3 282 155.4" enable-background="new 109.3 319.3 282 155.4" xml:space="preserve">
<g>
	<path d="M126.2,468.1c50.6-32.6,107.9-9.2,136.5,6.6C223.2,459.1,165.2,455.5,126.2,468.1z"/>
	<path d="M215.2,319.3c24.3,0,45.2,14.3,54.6,34.9h-19.2c-8.4-10.4-21.4-16.9-35.8-16.9c-14.3,0-27,6.4-35.4,16.4
		c0.5-0.3,1-0.7,1.3-1c19.9-14.1,46.4,1.5,46.4,1.5s-25.2-7.2-42.3,4.6c-17.1,12-14.3,35.8-14.3,35.8s-0.2-0.3-0.3-0.8
		c0,0.3,0.2,0.5,0.2,0.8c-4.1-3-9-4.9-14.5-5.4c-0.7-3.5-1-7.1-1-10.7C155.3,345.6,182.1,319.3,215.2,319.3L215.2,319.3z
		 M138.5,454.3v-5.1c15.8-11.7,44.9-27,79.9-15.9c53.3,16.6,87.1,39.3,128.1,29.1c41.1-10.2,44.7-32.7,44.7-32.7
		s-7.2,31.7-47.8,38.6c-40.4,6.9-77.8-0.8-125.1-18.6C186.4,438,155.3,447.2,138.5,454.3L138.5,454.3z M138.5,444.1
		c3-2,5.9-3.9,8.7-5.3c-1.3-0.8-2.6-1.8-3.8-3c-2.1-2.1-3.8-4.4-4.9-6.7v11l0.3,0.3c0.5,0.5,1.2,1,1.6,1.5c-0.7-0.3-1.3-0.7-2-1
		V444.1L138.5,444.1z M138.5,392.8v-18.7c3.9-1.3,8.1-2.1,12.3-2.3c-0.2,2.1-0.3,4.3-0.3,6.6c0,3.8,0.3,7.4,1,10.9
		C146.8,389.4,142.3,390.7,138.5,392.8z M138.5,374.1v18.7c-8.4,4.8-14,13.6-14,24c0,10.2,5.6,19.1,14,24v3.3
		c-3.3,2.3-6.6,4.8-9.4,6.7c-12-7.6-19.9-20.9-19.9-36.2C109.3,395.9,121.4,379.8,138.5,374.1L138.5,374.1z M138.5,429.1
		c-5.3-10.4-3.5-22-3.5-22s-9,20.7,3.5,33V429.1L138.5,429.1z M138.5,449.2c-8.2,6.1-12.8,11.2-12.8,11.2c0,0.2,4.8-2.6,12.8-6.1
		V449.2z"/>
	<path d="M272.2,441.1c0,0,25.3,13,49.3,10.9c23.8-2.1,31.1-10.5,31.1-10.5s-8.7,16.1-31.7,17.1
		C297.9,459.4,272.2,441.8,272.2,441.1z"/>
	<rect x="252.8" y="358.9" width="21.4" height="21.4"/>
	<rect x="337.5" y="418.1" width="16.4" height="16.4"/>
	<rect x="278.5" y="339.5" width="28.4" height="28.4"/>
	<rect x="361.2" y="388.7" width="28.4" height="28.4"/>
	<rect x="309.7" y="370.1" width="15.9" height="15.9"/>
	<rect x="320.2" y="401.4" width="15.9" height="15.9"/>
	<rect x="286.8" y="403" width="15.9" height="15.9"/>
	<rect x="342.6" y="370.6" width="15.9" height="15.9"/>
</g>
</svg>
