<?xml version="1.0" encoding="utf-8"?>
<!-- Generator: Adobe Illustrator 18.1.0, SVG Export Plug-In . SVG Version: 6.00 Build 0)  -->
<!DOCTYPE svg PUBLIC "-//W3C//DTD SVG 1.1//EN" "http://www.w3.org/Graphics/SVG/1.1/DTD/svg11.dtd">
<svg version="1.1" id="Layer_1" xmlns="http://www.w3.org/2000/svg" xmlns:xlink="http://www.w3.org/1999/xlink" x="0px" y="0px"
	 viewBox="1 348 608.2 94.5" enable-background="new 1 348 608.2 94.5" xml:space="preserve">
<g>
	<g>
		<path d="M11.3,438.5c30.8-19.8,65.6-5.6,83,4C70.3,433,35,430.8,11.3,438.5z"/>
		<path d="M65.4,348c14.8,0,27.5,8.7,33.2,21.2H86.9c-5.1-6.3-13-10.3-21.8-10.3c-8.7,0-16.4,3.9-21.5,10c0.3-0.2,0.6-0.4,0.8-0.6
			c12.1-8.6,28.2,0.9,28.2,0.9s-15.3-4.4-25.7,2.8c-10.4,7.3-8.7,21.8-8.7,21.8s-0.1-0.2-0.2-0.5c0,0.2,0.1,0.3,0.1,0.5
			c-2.5-1.8-5.5-3-8.8-3.3c-0.4-2.1-0.6-4.3-0.6-6.5C29,364,45.3,348,65.4,348L65.4,348z M18.8,430.1V427
			c9.6-7.1,27.3-16.4,48.6-9.7c32.4,10.1,53,23.9,77.9,17.7c25-6.2,27.2-19.9,27.2-19.9s-4.4,19.3-29.1,23.5
			c-24.6,4.2-47.3-0.5-76.1-11.3C47.9,420.2,29,425.8,18.8,430.1L18.8,430.1z M18.8,423.9c1.8-1.2,3.6-2.4,5.3-3.2
			c-0.8-0.5-1.6-1.1-2.3-1.8c-1.3-1.3-2.3-2.7-3-4.1v6.7l0.2,0.2c0.3,0.3,0.7,0.6,1,0.9c-0.4-0.2-0.8-0.4-1.2-0.6V423.9L18.8,423.9z
			 M18.8,392.7v-11.4c2.4-0.8,4.9-1.3,7.5-1.4c-0.1,1.3-0.2,2.6-0.2,4c0,2.3,0.2,4.5,0.6,6.6C23.8,390.6,21.1,391.4,18.8,392.7z
			 M18.8,381.3v11.4c-5.1,2.9-8.5,8.3-8.5,14.6c0,6.2,3.4,11.6,8.5,14.6v2c-2,1.4-4,2.9-5.7,4.1C5.8,423.4,1,415.3,1,406
			C1,394.6,8.4,384.8,18.8,381.3L18.8,381.3z M18.8,414.8c-3.2-6.3-2.1-13.4-2.1-13.4s-5.5,12.6,2.1,20.1V414.8L18.8,414.8z
			 M18.8,427c-5,3.7-7.8,6.8-7.8,6.8c0,0.1,2.9-1.6,7.8-3.7V427z"/>
		<path d="M100.1,422.1c0,0,15.4,7.9,30,6.6c14.5-1.3,18.9-6.4,18.9-6.4s-5.3,9.8-19.3,10.4C115.7,433.2,100.1,422.5,100.1,422.1z"
			/>
		<rect x="88.3" y="372.1" width="13" height="13"/>
		<rect x="139.8" y="408.1" width="10" height="10"/>
		<rect x="103.9" y="360.3" width="17.3" height="17.3"/>
		<rect x="154.2" y="390.2" width="17.3" height="17.3"/>
		<rect x="122.9" y="378.9" width="9.7" height="9.7"/>
		<rect x="129.3" y="397.9" width="9.7" height="9.7"/>
		<rect x="109" y="398.9" width="9.7" height="9.7"/>
		<rect x="142.9" y="379.2" width="9.7" height="9.7"/>
	</g>
	<g enable-background="new    ">
		<path d="M249.9,398.6c0,4-0.7,7.8-2,11.1s-3.2,6.3-5.7,8.7c-2.4,2.4-5.4,4.3-8.8,5.7c-3.4,1.3-7.2,2-11.4,2h-21.1V371H222
			c4.2,0,8,0.7,11.4,2c3.4,1.4,6.4,3.3,8.8,5.7c2.4,2.4,4.3,5.3,5.7,8.7C249.3,390.8,249.9,394.5,249.9,398.6z M239.4,398.6
			c0-3-0.4-5.7-1.2-8.1s-2-4.4-3.5-6.1c-1.5-1.7-3.3-2.9-5.5-3.8c-2.1-0.9-4.6-1.3-7.3-1.3h-10.7V418H222c2.7,0,5.1-0.4,7.3-1.3
			c2.1-0.9,4-2.2,5.5-3.8c1.5-1.7,2.7-3.7,3.5-6.1C239,404.3,239.4,401.6,239.4,398.6z"/>
		<path d="M265.9,375.6c0,0.8-0.2,1.6-0.5,2.3c-0.3,0.7-0.8,1.3-1.3,1.9c-0.5,0.5-1.2,1-1.9,1.3c-0.7,0.3-1.5,0.5-2.4,0.5
			c-0.8,0-1.6-0.2-2.3-0.5c-0.7-0.3-1.4-0.7-1.9-1.3s-1-1.2-1.3-1.9c-0.3-0.7-0.5-1.5-0.5-2.3c0-0.8,0.2-1.6,0.5-2.4
			c0.3-0.7,0.7-1.4,1.3-1.9s1.2-1,1.9-1.3c0.7-0.3,1.5-0.5,2.3-0.5c0.8,0,1.6,0.2,2.4,0.5c0.7,0.3,1.4,0.7,1.9,1.3
			c0.5,0.5,1,1.2,1.3,1.9C265.8,374,265.9,374.8,265.9,375.6z M264.5,387v39.1h-9.4V387H264.5z"/>
		<path d="M285.7,386.3c1.7,0,3.3,0.2,4.7,0.5s2.8,0.8,4,1.5h11.3v3.5c0,0.6-0.2,1-0.5,1.4c-0.3,0.3-0.8,0.6-1.6,0.7l-3.5,0.6
			c0.3,0.7,0.5,1.4,0.6,2.1c0.1,0.7,0.2,1.5,0.2,2.3c0,1.9-0.4,3.7-1.2,5.2s-1.8,2.9-3.2,4c-1.4,1.1-3,1.9-4.8,2.5
			c-1.9,0.6-3.9,0.9-6.1,0.9c-1.5,0-2.9-0.1-4.3-0.4c-1.2,0.7-1.8,1.6-1.8,2.5c0,0.8,0.4,1.4,1.1,1.7c0.7,0.4,1.7,0.6,2.9,0.8
			c1.2,0.2,2.5,0.2,4,0.2c1.5,0,3,0.1,4.6,0.2c1.6,0.1,3.1,0.4,4.6,0.7c1.5,0.3,2.8,0.8,4,1.5c1.2,0.7,2.1,1.6,2.9,2.8
			c0.7,1.2,1.1,2.7,1.1,4.6c0,1.7-0.4,3.4-1.3,5.1c-0.9,1.6-2.1,3.1-3.7,4.4c-1.6,1.3-3.6,2.3-5.9,3.1c-2.3,0.8-5,1.2-8,1.2
			c-3,0-5.6-0.3-7.7-0.9s-4-1.3-5.4-2.3c-1.4-1-2.5-2.1-3.2-3.3c-0.7-1.2-1.1-2.5-1.1-3.9c0-1.8,0.6-3.4,1.7-4.6s2.7-2.2,4.7-3
			c-1-0.5-1.7-1.2-2.3-2.1c-0.6-0.9-0.9-2-0.9-3.5c0-0.6,0.1-1.2,0.3-1.8c0.2-0.6,0.5-1.2,0.9-1.9c0.4-0.6,0.9-1.2,1.6-1.7
			c0.6-0.5,1.4-1,2.3-1.5c-2-1.1-3.5-2.5-4.7-4.3c-1.1-1.8-1.7-3.9-1.7-6.3c0-1.9,0.4-3.7,1.2-5.2c0.8-1.6,1.9-2.9,3.2-4
			c1.4-1.1,3-2,4.9-2.5C281.4,386.6,283.5,386.3,285.7,386.3z M296.1,427.8c0-0.8-0.2-1.4-0.7-1.9s-1.1-0.9-1.9-1.1
			c-0.8-0.3-1.7-0.5-2.8-0.6c-1.1-0.1-2.2-0.2-3.4-0.2c-1.2,0-2.4,0-3.7,0c-1.3,0-2.5-0.1-3.6-0.4c-1.1,0.6-1.9,1.3-2.6,2.1
			c-0.6,0.8-1,1.7-1,2.8c0,0.7,0.2,1.3,0.5,1.9c0.3,0.6,0.9,1.1,1.6,1.5c0.8,0.4,1.7,0.8,2.9,1c1.2,0.2,2.7,0.4,4.4,0.4
			c1.8,0,3.3-0.1,4.5-0.4c1.3-0.3,2.3-0.6,3.1-1.1c0.8-0.5,1.4-1.1,1.8-1.7C295.9,429.3,296.1,428.6,296.1,427.8z M285.7,405.6
			c1.2,0,2.2-0.2,3.1-0.5c0.9-0.3,1.6-0.8,2.2-1.3s1-1.2,1.3-2c0.3-0.8,0.4-1.7,0.4-2.6c0-1.9-0.6-3.5-1.7-4.6
			c-1.2-1.1-2.9-1.7-5.2-1.7c-2.3,0-4.1,0.6-5.2,1.7c-1.2,1.1-1.7,2.7-1.7,4.6c0,0.9,0.1,1.8,0.4,2.6c0.3,0.8,0.7,1.5,1.3,2
			c0.6,0.6,1.3,1,2.2,1.3C283.6,405.5,284.6,405.6,285.7,405.6z"/>
		<path d="M320.1,375.6c0,0.8-0.2,1.6-0.5,2.3c-0.3,0.7-0.8,1.3-1.3,1.9c-0.5,0.5-1.2,1-1.9,1.3c-0.7,0.3-1.5,0.5-2.4,0.5
			c-0.8,0-1.6-0.2-2.3-0.5c-0.7-0.3-1.4-0.7-1.9-1.3c-0.5-0.5-1-1.2-1.3-1.9c-0.3-0.7-0.5-1.5-0.5-2.3c0-0.8,0.2-1.6,0.5-2.4
			c0.3-0.7,0.7-1.4,1.3-1.9c0.5-0.5,1.2-1,1.9-1.3c0.7-0.3,1.5-0.5,2.3-0.5c0.8,0,1.6,0.2,2.4,0.5c0.7,0.3,1.4,0.7,1.9,1.3
			c0.5,0.5,1,1.2,1.3,1.9C320,374,320.1,374.8,320.1,375.6z M318.7,387v39.1h-9.4V387H318.7z"/>
		<path d="M339.2,426.8c-3.4,0-6-1-7.8-2.9c-1.8-1.9-2.7-4.6-2.7-8v-21.9h-4c-0.5,0-0.9-0.2-1.3-0.5c-0.4-0.3-0.6-0.8-0.6-1.5v-3.7
			l6.3-1l2-10.7c0.1-0.5,0.3-0.9,0.7-1.2c0.4-0.3,0.8-0.4,1.4-0.4h4.9v12.3h10.3v6.7h-10.3v21.2c0,1.2,0.3,2.2,0.9,2.9
			c0.6,0.7,1.4,1,2.4,1c0.6,0,1.1-0.1,1.5-0.2s0.7-0.3,1-0.4c0.3-0.2,0.6-0.3,0.8-0.4c0.2-0.1,0.5-0.2,0.7-0.2
			c0.3,0,0.5,0.1,0.7,0.2c0.2,0.1,0.4,0.3,0.6,0.6l2.8,4.6c-1.4,1.1-3,2-4.7,2.6C343,426.5,341.2,426.8,339.2,426.8z"/>
		<path d="M383.6,426.2h-4.2c-0.9,0-1.6-0.1-2.1-0.4c-0.5-0.3-0.9-0.8-1.1-1.6l-0.8-2.8c-1,0.9-2,1.7-2.9,2.3c-1,0.7-1.9,1.2-3,1.7
			c-1,0.5-2.1,0.8-3.2,1c-1.1,0.2-2.4,0.3-3.8,0.3c-1.7,0-3.2-0.2-4.6-0.7c-1.4-0.4-2.6-1.1-3.6-2c-1-0.9-1.8-2-2.3-3.3
			s-0.8-2.9-0.8-4.6c0-1.5,0.4-2.9,1.2-4.4c0.8-1.4,2.1-2.7,3.9-3.9c1.8-1.2,4.2-2.1,7.2-2.9s6.7-1.1,11.2-1.1v-2.3
			c0-2.6-0.6-4.6-1.7-5.9c-1.1-1.3-2.7-1.9-4.8-1.9c-1.5,0-2.8,0.2-3.8,0.5c-1,0.4-1.9,0.8-2.7,1.2c-0.8,0.4-1.4,0.8-2.1,1.2
			c-0.6,0.4-1.3,0.5-2.1,0.5c-0.6,0-1.2-0.2-1.6-0.5c-0.5-0.3-0.8-0.7-1.1-1.2l-1.7-3c4.5-4.1,9.9-6.2,16.3-6.2
			c2.3,0,4.3,0.4,6.1,1.1c1.8,0.8,3.3,1.8,4.6,3.1c1.2,1.3,2.2,2.9,2.8,4.8s1,3.9,1,6.1V426.2z M365.3,420.3c1,0,1.9-0.1,2.7-0.3
			c0.8-0.2,1.6-0.4,2.3-0.8c0.7-0.4,1.4-0.8,2.1-1.3c0.7-0.5,1.4-1.1,2-1.8v-6.6c-2.7,0-5,0.2-6.9,0.5c-1.8,0.3-3.3,0.8-4.4,1.3
			s-1.9,1.2-2.4,1.9c-0.5,0.7-0.7,1.5-0.7,2.3c0,1.7,0.5,2.9,1.5,3.6C362.4,419.9,363.7,420.3,365.3,420.3z"/>
		<path d="M399.9,369.5v56.7h-9.4v-56.7H399.9z"/>
		<path d="M461.1,398.6c0,4-0.7,7.8-2,11.2c-1.3,3.4-3.2,6.4-5.7,8.9c-2.4,2.5-5.4,4.5-8.8,5.9c-3.4,1.4-7.2,2.1-11.4,2.1
			c-4.2,0-8-0.7-11.4-2.1c-3.4-1.4-6.4-3.4-8.9-5.9c-2.5-2.5-4.4-5.5-5.7-8.9c-1.3-3.4-2-7.2-2-11.2c0-4,0.7-7.8,2-11.2
			c1.3-3.4,3.2-6.4,5.7-8.9c2.5-2.5,5.4-4.5,8.9-5.9c3.4-1.4,7.3-2.1,11.4-2.1c4.2,0,8,0.7,11.4,2.1c3.4,1.4,6.4,3.4,8.8,5.9
			c2.4,2.5,4.3,5.5,5.7,8.9C460.4,390.8,461.1,394.5,461.1,398.6z M450.5,398.6c0-3-0.4-5.7-1.2-8.1c-0.8-2.4-2-4.4-3.5-6.1
			c-1.5-1.7-3.3-3-5.5-3.9c-2.1-0.9-4.6-1.3-7.3-1.3c-2.7,0-5.1,0.4-7.3,1.3c-2.2,0.9-4,2.2-5.5,3.9s-2.7,3.7-3.5,6.1
			c-0.8,2.4-1.2,5.1-1.2,8.1c0,3,0.4,5.7,1.2,8.1c0.8,2.4,2,4.4,3.5,6.1s3.4,2.9,5.5,3.8c2.2,0.9,4.6,1.3,7.3,1.3
			c2.7,0,5.1-0.4,7.3-1.3c2.1-0.9,4-2.2,5.5-3.8c1.5-1.7,2.7-3.7,3.5-6.1C450.1,404.3,450.5,401.6,450.5,398.6z"/>
		<path d="M493.2,395.3c-0.3,0.4-0.6,0.6-0.8,0.8c-0.3,0.2-0.7,0.3-1.2,0.3c-0.5,0-1-0.1-1.4-0.4c-0.5-0.3-1-0.6-1.6-1
			c-0.6-0.4-1.4-0.7-2.3-1c-0.9-0.3-2-0.4-3.3-0.4c-1.7,0-3.1,0.3-4.3,0.9c-1.2,0.6-2.3,1.5-3.1,2.6c-0.8,1.1-1.4,2.5-1.8,4.1
			c-0.4,1.6-0.6,3.4-0.6,5.4c0,2.1,0.2,3.9,0.7,5.6s1.1,3,1.9,4.1c0.8,1.1,1.9,1.9,3.1,2.5c1.2,0.6,2.5,0.9,4,0.9
			c1.5,0,2.7-0.2,3.6-0.6c0.9-0.4,1.7-0.8,2.3-1.2c0.6-0.4,1.2-0.9,1.7-1.2c0.5-0.4,1-0.6,1.6-0.6c0.8,0,1.3,0.3,1.7,0.9l2.7,3.4
			c-1,1.2-2.2,2.2-3.4,3.1c-1.2,0.8-2.5,1.5-3.8,2c-1.3,0.5-2.7,0.8-4.1,1c-1.4,0.2-2.8,0.3-4.2,0.3c-2.4,0-4.7-0.5-6.8-1.4
			c-2.1-0.9-4-2.2-5.6-3.9s-2.8-3.8-3.8-6.4s-1.4-5.4-1.4-8.6c0-2.9,0.4-5.5,1.2-8c0.8-2.5,2-4.6,3.6-6.4c1.6-1.8,3.6-3.2,6-4.2
			c2.4-1,5.1-1.5,8.2-1.5c2.9,0,5.5,0.5,7.7,1.4c2.2,0.9,4.2,2.3,5.9,4L493.2,395.3z"/>
		<path d="M515.2,386.4c2.5,0,4.7,0.4,6.8,1.2c2.1,0.8,3.9,1.9,5.4,3.5c1.5,1.5,2.7,3.4,3.5,5.6c0.8,2.2,1.3,4.7,1.3,7.5
			c0,0.7,0,1.3-0.1,1.8c-0.1,0.5-0.2,0.8-0.3,1.1c-0.2,0.3-0.4,0.5-0.7,0.6s-0.6,0.2-1.1,0.2h-24.2c0.3,4,1.4,7,3.2,8.9
			c1.9,1.9,4.4,2.8,7.5,2.8c1.5,0,2.8-0.2,3.9-0.5c1.1-0.4,2.1-0.8,2.9-1.2c0.8-0.4,1.6-0.8,2.2-1.2c0.6-0.4,1.2-0.5,1.8-0.5
			c0.4,0,0.7,0.1,1,0.2c0.3,0.2,0.5,0.4,0.7,0.6l2.7,3.4c-1,1.2-2.2,2.2-3.5,3.1c-1.3,0.8-2.7,1.5-4.1,2c-1.4,0.5-2.8,0.8-4.3,1
			c-1.5,0.2-2.9,0.3-4.3,0.3c-2.7,0-5.3-0.5-7.6-1.4s-4.4-2.2-6.1-4s-3.1-4-4.1-6.6c-1-2.6-1.5-5.6-1.5-9.1c0-2.7,0.4-5.2,1.3-7.5
			c0.9-2.4,2.1-4.4,3.7-6.1c1.6-1.7,3.6-3.1,5.9-4.1C509.7,386.9,512.3,386.4,515.2,386.4z M515.4,393.1c-2.7,0-4.9,0.8-6.4,2.3
			c-1.6,1.6-2.5,3.8-3,6.6h17.7c0-1.2-0.2-2.4-0.5-3.5c-0.3-1.1-0.8-2-1.5-2.8c-0.7-0.8-1.6-1.5-2.6-1.9
			C518.1,393.4,516.8,393.1,515.4,393.1z"/>
		<path d="M567.5,426.2h-4.2c-0.9,0-1.6-0.1-2.1-0.4c-0.5-0.3-0.9-0.8-1.1-1.6l-0.8-2.8c-1,0.9-2,1.7-2.9,2.3c-1,0.7-1.9,1.2-3,1.7
			c-1,0.5-2.1,0.8-3.2,1c-1.1,0.2-2.4,0.3-3.8,0.3c-1.7,0-3.2-0.2-4.6-0.7c-1.4-0.4-2.6-1.1-3.6-2c-1-0.9-1.8-2-2.3-3.3
			s-0.8-2.9-0.8-4.6c0-1.5,0.4-2.9,1.2-4.4c0.8-1.4,2.1-2.7,3.9-3.9c1.8-1.2,4.2-2.1,7.2-2.9s6.7-1.1,11.2-1.1v-2.3
			c0-2.6-0.6-4.6-1.7-5.9c-1.1-1.3-2.7-1.9-4.8-1.9c-1.5,0-2.8,0.2-3.8,0.5c-1,0.4-1.9,0.8-2.7,1.2c-0.8,0.4-1.4,0.8-2.1,1.2
			c-0.6,0.4-1.3,0.5-2.1,0.5c-0.6,0-1.2-0.2-1.6-0.5c-0.5-0.3-0.8-0.7-1.1-1.2l-1.7-3c4.5-4.1,9.9-6.2,16.3-6.2
			c2.3,0,4.3,0.4,6.1,1.1c1.8,0.8,3.3,1.8,4.6,3.1c1.2,1.3,2.2,2.9,2.8,4.8s1,3.9,1,6.1V426.2z M549.2,420.3c1,0,1.9-0.1,2.7-0.3
			c0.8-0.2,1.6-0.4,2.3-0.8c0.7-0.4,1.4-0.8,2.1-1.3c0.7-0.5,1.4-1.1,2-1.8v-6.6c-2.7,0-5,0.2-6.9,0.5c-1.8,0.3-3.3,0.8-4.4,1.3
			s-1.9,1.2-2.4,1.9c-0.5,0.7-0.7,1.5-0.7,2.3c0,1.7,0.5,2.9,1.5,3.6C546.4,419.9,547.7,420.3,549.2,420.3z"/>
		<path d="M573.8,426.2V387h5.8c1.2,0,2,0.6,2.4,1.7l0.6,3.1c0.8-0.8,1.6-1.6,2.5-2.2c0.9-0.7,1.8-1.2,2.8-1.7c1-0.5,2-0.9,3.1-1.1
			c1.1-0.3,2.3-0.4,3.7-0.4c2.1,0,4,0.4,5.7,1.1c1.7,0.7,3,1.7,4.1,3.1c1.1,1.3,1.9,2.9,2.5,4.7c0.6,1.8,0.9,3.8,0.9,6v24.9h-9.4
			v-24.9c0-2.4-0.6-4.2-1.7-5.6c-1.1-1.3-2.8-2-5-2c-1.6,0-3.2,0.4-4.6,1.1c-1.4,0.7-2.8,1.7-4,3v28.3H573.8z"/>
	</g>
</g>
</svg>
