<?xml version="1.0" encoding="utf-8"?>
<!-- Generator: Adobe Illustrator 18.1.0, SVG Export Plug-In . SVG Version: 6.00 Build 0)  -->
<!DOCTYPE svg PUBLIC "-//W3C//DTD SVG 1.1//EN" "http://www.w3.org/Graphics/SVG/1.1/DTD/svg11.dtd">
<svg version="1.1" id="Layer_1" xmlns="http://www.w3.org/2000/svg" xmlns:xlink="http://www.w3.org/1999/xlink" x="0px" y="0px"
	 viewBox="0 151.2 611.9 489.6" enable-background="new 0 151.2 611.9 489.6" xml:space="preserve">
<path fill="#231F20" d="M20.4,151.2h571.2c11.3,0,20.4,9.1,20.4,20.4v40.8c0,11.3-9.1,20.4-20.4,20.4H20.4
	C9.1,232.8,0,223.7,0,212.4v-40.8C0,160.3,9.1,151.2,20.4,151.2z"/>
<path fill="#231F20" d="M20.4,355.2h571.2c11.3,0,20.4,9.1,20.4,20.4v40.8c0,11.3-9.1,20.4-20.4,20.4H20.4
	C9.1,436.8,0,427.7,0,416.4v-40.8C0,364.4,9.1,355.2,20.4,355.2z"/>
<path fill="#231F20" d="M20.4,559.2h571.2c11.3,0,20.4,9.1,20.4,20.4v40.8c0,11.3-9.1,20.4-20.4,20.4H20.4
	C9.1,640.8,0,631.7,0,620.4v-40.8C0,568.3,9.1,559.2,20.4,559.2z"/>
</svg>
