<?xml version="1.0" encoding="utf-8"?>
<!-- Generator: Adobe Illustrator 18.0.0, SVG Export Plug-In . SVG Version: 6.00 Build 0)  -->
<!DOCTYPE svg PUBLIC "-//W3C//DTD SVG 1.1//EN" "http://www.w3.org/Graphics/SVG/1.1/DTD/svg11.dtd">
<svg version="1.1" id="Layer_1" xmlns="http://www.w3.org/2000/svg" xmlns:xlink="http://www.w3.org/1999/xlink" x="0px" y="0px"
	 viewBox="0 0 70 49" enable-background="new 0 0 70 49" xml:space="preserve">
<g>
	<path fill="#ffffff" d="M1.9,48.9C0.2,48.5,0,46.7,0,46.7l13.1-28.1c0.6-1.2,3.5-1.2,4.4,0
		c3.3,4.5,9.8,13.4,9.8,13.4l13.3-20.8c0.6-0.9,3.2-0.8,3.9,0.1c2.6,3.3,7.9,9.8,7.9,9.8L65.4,0.7c0,0,1.8-1.2,3.4-0.4
		S70,2.7,70,2.7L54.7,27.1c-0.5,0.7-2.6,0.7-3.2-0.1l-8.7-10.8L29.3,37.5c-0.5,0.8-2.9,0.7-3.5-0.1c-3.4-4.5-10.1-13.5-10.1-13.5
		l-10.5,24C5.2,47.9,3.7,49.3,1.9,48.9z"/>
</g>
</svg>
