<?xml version="1.0" encoding="utf-8"?>
<!-- Generator: Adobe Illustrator 18.0.0, SVG Export Plug-In . SVG Version: 6.00 Build 0)  -->
<!DOCTYPE svg PUBLIC "-//W3C//DTD SVG 1.1//EN" "http://www.w3.org/Graphics/SVG/1.1/DTD/svg11.dtd">
<svg version="1.1" id="Layer_1" xmlns="http://www.w3.org/2000/svg" xmlns:xlink="http://www.w3.org/1999/xlink" x="0px" y="0px"
	 viewBox="395.9 141.8 208.3 209" enable-background="new 395.9 141.8 208.3 209" xml:space="preserve">
<path fill="#00D075" d="M506.3,246.3l96.6-96.9c1.7-1.7,1.7-4.6,0-6.3c-1.7-1.7-4.6-1.7-6.3,0L500,240l-96.5-96.9
	c-1.7-1.8-4.6-1.7-6.3,0c-1.8,1.7-1.8,4.6,0,6.3l96.6,96.9l-96.6,96.9c-1.7,1.7-1.7,4.6,0,6.3c0.9,0.9,2,1.3,3.1,1.3
	c1.1,0,2.3-0.4,3.2-1.3l96.5-96.9l96.5,96.9c0.9,0.9,2,1.3,3.2,1.3c1.1,0,2.3-0.4,3.1-1.3c1.8-1.7,1.8-4.6,0-6.3L506.3,246.3z"/>
</svg>
