<?xml version="1.0" encoding="utf-8"?>
<!-- Generator: Adobe Illustrator 18.1.0, SVG Export Plug-In . SVG Version: 6.00 Build 0)  -->
<!DOCTYPE svg PUBLIC "-//W3C//DTD SVG 1.1//EN" "http://www.w3.org/Graphics/SVG/1.1/DTD/svg11.dtd">
<svg version="1.1" id="Layer_1" xmlns="http://www.w3.org/2000/svg" xmlns:xlink="http://www.w3.org/1999/xlink" x="0px" y="0px"
	 viewBox="1 348 608.2 94.5" enable-background="new 1 348 608.2 94.5" xml:space="preserve">
<g>
	<g>
		<path d="M11.3,438.5c30.8-19.8,65.6-5.6,83,4C70.3,433,35,430.8,11.3,438.5z"/>
		<path d="M65.4,348c14.8,0,27.5,8.7,33.2,21.2H86.9c-5.1-6.3-13-10.3-21.8-10.3c-8.7,0-16.4,3.9-21.5,10c0.3-0.2,0.6-0.4,0.8-0.6
			c12.1-8.6,28.2,0.9,28.2,0.9s-15.3-4.4-25.7,2.8c-10.4,7.3-8.7,21.8-8.7,21.8s-0.1-0.2-0.2-0.5c0,0.2,0.1,0.3,0.1,0.5
			c-2.5-1.8-5.5-3-8.8-3.3c-0.4-2.1-0.6-4.3-0.6-6.5C29,364,45.3,348,65.4,348L65.4,348z M18.8,430.1V427
			c9.6-7.1,27.3-16.4,48.6-9.7c32.4,10.1,53,23.9,77.9,17.7c25-6.2,27.2-19.9,27.2-19.9s-4.4,19.3-29.1,23.5
			c-24.6,4.2-47.3-0.5-76.1-11.3C47.9,420.2,29,425.8,18.8,430.1L18.8,430.1z M18.8,423.9c1.8-1.2,3.6-2.4,5.3-3.2
			c-0.8-0.5-1.6-1.1-2.3-1.8c-1.3-1.3-2.3-2.7-3-4.1v6.7l0.2,0.2c0.3,0.3,0.7,0.6,1,0.9c-0.4-0.2-0.8-0.4-1.2-0.6V423.9L18.8,423.9z
			 M18.8,392.7v-11.4c2.4-0.8,4.9-1.3,7.5-1.4c-0.1,1.3-0.2,2.6-0.2,4c0,2.3,0.2,4.5,0.6,6.6C23.8,390.6,21.1,391.4,18.8,392.7z
			 M18.8,381.3v11.4c-5.1,2.9-8.5,8.3-8.5,14.6c0,6.2,3.4,11.6,8.5,14.6v2c-2,1.4-4,2.9-5.7,4.1C5.8,423.4,1,415.3,1,406
			C1,394.6,8.4,384.8,18.8,381.3L18.8,381.3z M18.8,414.8c-3.2-6.3-2.1-13.4-2.1-13.4s-5.5,12.6,2.1,20.1V414.8L18.8,414.8z
			 M18.8,427c-5,3.7-7.8,6.8-7.8,6.8c0,0.1,2.9-1.6,7.8-3.7V427z"/>
		<path d="M100.1,422.1c0,0,15.4,7.9,30,6.6c14.5-1.3,18.9-6.4,18.9-6.4s-5.3,9.8-19.3,10.4C115.7,433.2,100.1,422.5,100.1,422.1z"
			/>
		<rect x="88.3" y="372.1" width="13" height="13"/>
		<rect x="139.8" y="408.1" width="10" height="10"/>
		<rect x="103.9" y="360.3" width="17.3" height="17.3"/>
		<rect x="154.2" y="390.2" width="17.3" height="17.3"/>
		<rect x="122.9" y="378.9" width="9.7" height="9.7"/>
		<rect x="129.3" y="397.9" width="9.7" height="9.7"/>
		<rect x="109" y="398.9" width="9.7" height="9.7"/>
		<rect x="142.9" y="379.2" width="9.7" height="9.7"/>
	</g>
	<text transform="matrix(1 0 0 1 195.3721 426.1504)" font-family="'Lato-Bold'" font-size="76.3053" letter-spacing="-2">DigitalOcean</text>
</g>
</svg>
